<?xml version="1.0" encoding="UTF-8" standalone="no"?>
<!DOCTYPE svg PUBLIC "-//W3C//DTD SVG 1.1//EN" "http://www.w3.org/Graphics/SVG/1.1/DTD/svg11.dtd">
<svg width="100%" height="100%" viewBox="0 0 1920 1080" version="1.1" xmlns="http://www.w3.org/2000/svg" xmlns:xlink="http://www.w3.org/1999/xlink" xml:space="preserve" xmlns:serif="http://www.serif.com/" style="fill-rule:evenodd;clip-rule:evenodd;stroke-linecap:square;stroke-linejoin:round;stroke-miterlimit:1.5;">
    <g transform="matrix(0.748045,0,0,0.748045,13.2429,95.4619)">
        <circle cx="555.124" cy="594.267" r="373.641" style="fill:#235789;stroke:#000;stroke-width:1.34px;"/>
    </g>
    <g transform="matrix(1,0,0,0.928109,-306.338,16.0825)">
        <rect x="778" y="406" width="9" height="317" style="fill:none;stroke:#fbfef9;stroke-width:41.46px;stroke-linecap:round;"/>
    </g>
    <g transform="matrix(0.697181,0,0,0.62598,-4.68387,200.093)">
        <path d="M542,778C425.546,778 331,672.7 331,543C331,413.3 425.546,308 542,308" style="fill:none;stroke:#fbfef9;stroke-width:60.37px;stroke-linecap:round;"/>
    </g>
    <g transform="matrix(0.697181,0,0,0.62598,98.2898,200.093)">
        <path d="M542,308C658.454,308 753,413.3 753,543C753,672.7 658.454,778 542,778" style="fill:none;stroke:#fbfef9;stroke-width:60.37px;stroke-linecap:round;"/>
    </g>
    <g transform="matrix(1,0,0,1,-218.192,-26.904)">
        <g transform="matrix(128,0,0,128,1013,603)">
            <path d="M0.45,0.01C0.379,0.01 0.314,-0.008 0.255,-0.043C0.196,-0.078 0.149,-0.127 0.115,-0.188C0.081,-0.249 0.064,-0.317 0.064,-0.391C0.064,-0.464 0.081,-0.532 0.115,-0.593C0.149,-0.654 0.196,-0.702 0.255,-0.738C0.314,-0.773 0.379,-0.791 0.45,-0.791C0.501,-0.791 0.545,-0.784 0.582,-0.771C0.619,-0.758 0.656,-0.736 0.694,-0.705C0.702,-0.699 0.707,-0.693 0.71,-0.687C0.713,-0.68 0.714,-0.673 0.714,-0.664C0.714,-0.651 0.709,-0.64 0.7,-0.631C0.69,-0.622 0.679,-0.618 0.666,-0.618C0.653,-0.618 0.642,-0.622 0.631,-0.631C0.604,-0.654 0.577,-0.671 0.551,-0.682C0.525,-0.692 0.491,-0.697 0.45,-0.697C0.398,-0.697 0.35,-0.683 0.307,-0.656C0.263,-0.629 0.228,-0.592 0.203,-0.545C0.177,-0.498 0.164,-0.446 0.164,-0.391C0.164,-0.335 0.177,-0.284 0.203,-0.237C0.228,-0.19 0.263,-0.153 0.307,-0.126C0.35,-0.099 0.398,-0.085 0.45,-0.085C0.514,-0.085 0.575,-0.107 0.634,-0.151C0.645,-0.159 0.656,-0.163 0.667,-0.163C0.68,-0.163 0.69,-0.159 0.699,-0.15C0.707,-0.141 0.711,-0.129 0.711,-0.114C0.711,-0.1 0.706,-0.088 0.695,-0.077C0.623,-0.019 0.541,0.01 0.45,0.01Z" style="fill:#fbfef9;fill-rule:nonzero;"/>
        </g>
        <g transform="matrix(128,0,0,128,1112.46,603)">
            <path d="M0.358,-0.553C0.393,-0.553 0.421,-0.548 0.441,-0.537C0.461,-0.526 0.471,-0.513 0.471,-0.497C0.471,-0.492 0.471,-0.489 0.47,-0.487C0.464,-0.466 0.451,-0.455 0.43,-0.455C0.427,-0.455 0.422,-0.456 0.415,-0.457C0.388,-0.462 0.367,-0.464 0.35,-0.464C0.302,-0.464 0.263,-0.453 0.234,-0.431C0.205,-0.409 0.19,-0.379 0.19,-0.342L0.19,-0.05C0.19,-0.034 0.186,-0.022 0.178,-0.013C0.169,-0.004 0.157,0 0.14,0C0.124,0 0.112,-0.004 0.103,-0.013C0.094,-0.021 0.09,-0.033 0.09,-0.05L0.09,-0.497C0.09,-0.513 0.094,-0.525 0.103,-0.534C0.112,-0.543 0.124,-0.547 0.14,-0.547C0.173,-0.547 0.19,-0.53 0.19,-0.497L0.19,-0.478C0.21,-0.501 0.235,-0.52 0.264,-0.533C0.293,-0.546 0.325,-0.553 0.358,-0.553Z" style="fill:#fbfef9;fill-rule:nonzero;"/>
        </g>
        <g transform="matrix(128,0,0,128,1169.54,603)">
            <path d="M0.338,0.004C0.285,0.004 0.237,-0.008 0.195,-0.032C0.153,-0.055 0.12,-0.088 0.097,-0.13C0.074,-0.172 0.062,-0.22 0.062,-0.273C0.062,-0.327 0.074,-0.375 0.097,-0.417C0.12,-0.459 0.153,-0.492 0.195,-0.516C0.237,-0.539 0.285,-0.551 0.338,-0.551C0.391,-0.551 0.438,-0.539 0.48,-0.516C0.521,-0.492 0.554,-0.459 0.578,-0.417C0.601,-0.375 0.613,-0.327 0.613,-0.273C0.613,-0.22 0.601,-0.172 0.578,-0.13C0.555,-0.088 0.522,-0.055 0.481,-0.032C0.439,-0.008 0.391,0.004 0.338,0.004ZM0.338,-0.086C0.372,-0.086 0.403,-0.094 0.43,-0.11C0.457,-0.126 0.477,-0.148 0.493,-0.177C0.507,-0.205 0.515,-0.237 0.515,-0.273C0.515,-0.309 0.507,-0.341 0.493,-0.37C0.477,-0.399 0.457,-0.421 0.43,-0.437C0.403,-0.453 0.372,-0.461 0.338,-0.461C0.304,-0.461 0.274,-0.453 0.247,-0.437C0.22,-0.421 0.198,-0.399 0.183,-0.37C0.168,-0.341 0.16,-0.309 0.16,-0.273C0.16,-0.237 0.168,-0.205 0.183,-0.177C0.198,-0.148 0.22,-0.126 0.247,-0.11C0.274,-0.094 0.304,-0.086 0.338,-0.086Z" style="fill:#fbfef9;fill-rule:nonzero;"/>
        </g>
        <g transform="matrix(128,0,0,128,1293.45,603)">
            <path d="M0.152,0C0.137,0 0.125,-0.005 0.115,-0.015C0.105,-0.025 0.1,-0.037 0.1,-0.052L0.1,-0.729C0.1,-0.744 0.105,-0.757 0.115,-0.767C0.125,-0.776 0.137,-0.781 0.152,-0.781L0.333,-0.781C0.408,-0.781 0.475,-0.764 0.534,-0.731C0.593,-0.698 0.638,-0.652 0.671,-0.593C0.704,-0.534 0.72,-0.466 0.72,-0.391C0.72,-0.316 0.704,-0.248 0.671,-0.189C0.638,-0.13 0.593,-0.083 0.534,-0.05C0.475,-0.017 0.408,0 0.333,0L0.152,0ZM0.333,-0.092C0.388,-0.092 0.438,-0.105 0.482,-0.13C0.525,-0.155 0.559,-0.191 0.584,-0.236C0.608,-0.282 0.62,-0.334 0.62,-0.391C0.62,-0.448 0.608,-0.5 0.584,-0.545C0.559,-0.59 0.525,-0.626 0.482,-0.651C0.438,-0.676 0.388,-0.689 0.333,-0.689L0.204,-0.689L0.204,-0.092L0.333,-0.092Z" style="fill:#fbfef9;fill-rule:nonzero;"/>
        </g>
        <g transform="matrix(128,0,0,128,1393.67,603)">
            <path d="M0.581,-0.282C0.581,-0.269 0.577,-0.259 0.568,-0.251C0.559,-0.242 0.548,-0.238 0.535,-0.238L0.155,-0.238C0.162,-0.191 0.184,-0.154 0.219,-0.125C0.254,-0.096 0.296,-0.082 0.347,-0.082C0.367,-0.082 0.388,-0.086 0.409,-0.093C0.431,-0.1 0.449,-0.109 0.463,-0.12C0.472,-0.127 0.483,-0.131 0.496,-0.131C0.509,-0.131 0.519,-0.128 0.526,-0.121C0.538,-0.111 0.544,-0.1 0.544,-0.087C0.544,-0.075 0.539,-0.065 0.528,-0.057C0.505,-0.039 0.477,-0.024 0.444,-0.013C0.41,-0.002 0.378,0.004 0.347,0.004C0.292,0.004 0.243,-0.008 0.2,-0.032C0.157,-0.055 0.123,-0.088 0.099,-0.13C0.074,-0.172 0.062,-0.22 0.062,-0.273C0.062,-0.326 0.074,-0.374 0.097,-0.417C0.119,-0.459 0.152,-0.492 0.193,-0.516C0.234,-0.539 0.28,-0.551 0.332,-0.551C0.383,-0.551 0.428,-0.54 0.465,-0.517C0.502,-0.494 0.531,-0.463 0.551,-0.422C0.571,-0.381 0.581,-0.335 0.581,-0.282ZM0.332,-0.465C0.283,-0.465 0.244,-0.452 0.214,-0.425C0.183,-0.398 0.164,-0.363 0.156,-0.318L0.489,-0.318C0.483,-0.363 0.466,-0.398 0.439,-0.425C0.412,-0.452 0.376,-0.465 0.332,-0.465Z" style="fill:#fbfef9;fill-rule:nonzero;"/>
        </g>
        <g transform="matrix(128,0,0,128,1473.16,603)">
            <path d="M0.289,0.004C0.244,0.004 0.201,-0.003 0.161,-0.017C0.121,-0.031 0.09,-0.049 0.067,-0.072C0.058,-0.081 0.054,-0.091 0.054,-0.103C0.054,-0.119 0.061,-0.132 0.074,-0.142C0.087,-0.151 0.098,-0.156 0.109,-0.156C0.122,-0.156 0.135,-0.15 0.147,-0.138C0.16,-0.124 0.179,-0.112 0.204,-0.102C0.229,-0.091 0.256,-0.086 0.285,-0.086C0.323,-0.086 0.353,-0.092 0.374,-0.105C0.395,-0.118 0.405,-0.135 0.405,-0.156C0.405,-0.177 0.395,-0.194 0.374,-0.207C0.353,-0.221 0.318,-0.233 0.269,-0.242C0.141,-0.267 0.077,-0.319 0.077,-0.4C0.077,-0.433 0.087,-0.46 0.106,-0.483C0.125,-0.506 0.151,-0.523 0.182,-0.534C0.213,-0.545 0.247,-0.551 0.282,-0.551C0.325,-0.551 0.364,-0.544 0.399,-0.53C0.433,-0.516 0.46,-0.497 0.48,-0.472C0.489,-0.461 0.493,-0.451 0.493,-0.44C0.493,-0.429 0.487,-0.418 0.476,-0.409C0.469,-0.404 0.459,-0.401 0.448,-0.401C0.431,-0.401 0.415,-0.407 0.401,-0.42C0.384,-0.435 0.367,-0.446 0.348,-0.453C0.329,-0.459 0.307,-0.462 0.28,-0.462C0.249,-0.462 0.224,-0.457 0.204,-0.447C0.185,-0.436 0.175,-0.422 0.175,-0.403C0.175,-0.39 0.178,-0.379 0.185,-0.37C0.192,-0.361 0.204,-0.352 0.223,-0.344C0.242,-0.337 0.269,-0.329 0.304,-0.322C0.377,-0.307 0.428,-0.287 0.459,-0.261C0.489,-0.235 0.504,-0.201 0.504,-0.16C0.504,-0.129 0.496,-0.102 0.479,-0.077C0.462,-0.051 0.438,-0.032 0.406,-0.018C0.373,-0.003 0.334,0.004 0.289,0.004Z" style="fill:#fbfef9;fill-rule:nonzero;"/>
        </g>
        <g transform="matrix(128,0,0,128,1542.66,603)">
            <path d="M0.151,0C0.136,0 0.124,-0.005 0.115,-0.015C0.105,-0.024 0.1,-0.036 0.1,-0.051L0.1,-0.496C0.1,-0.511 0.105,-0.524 0.115,-0.533C0.124,-0.542 0.136,-0.547 0.151,-0.547C0.166,-0.547 0.179,-0.542 0.188,-0.533C0.197,-0.524 0.202,-0.511 0.202,-0.496L0.202,-0.051C0.202,-0.036 0.197,-0.024 0.188,-0.015C0.179,-0.005 0.166,0 0.151,0ZM0.151,-0.636C0.133,-0.636 0.117,-0.643 0.105,-0.656C0.092,-0.669 0.085,-0.684 0.085,-0.702C0.085,-0.72 0.092,-0.736 0.105,-0.749C0.117,-0.761 0.133,-0.768 0.151,-0.768C0.169,-0.768 0.185,-0.761 0.198,-0.749C0.211,-0.736 0.217,-0.72 0.217,-0.702C0.217,-0.684 0.211,-0.669 0.198,-0.656C0.185,-0.643 0.169,-0.636 0.151,-0.636Z" style="fill:#fbfef9;fill-rule:nonzero;"/>
        </g>
        <g transform="matrix(128,0,0,128,1581.32,603)">
            <path d="M0.338,-0.551C0.391,-0.551 0.438,-0.539 0.48,-0.516C0.521,-0.492 0.554,-0.459 0.578,-0.417C0.601,-0.375 0.613,-0.327 0.613,-0.273L0.613,-0.057C0.613,-0.004 0.601,0.044 0.578,0.087C0.555,0.13 0.522,0.164 0.48,0.189C0.437,0.214 0.389,0.227 0.336,0.227C0.288,0.227 0.243,0.217 0.202,0.198C0.161,0.179 0.126,0.152 0.098,0.117C0.091,0.108 0.087,0.098 0.087,0.089C0.087,0.075 0.094,0.063 0.108,0.053C0.117,0.047 0.127,0.044 0.136,0.044C0.153,0.044 0.166,0.051 0.177,0.065C0.195,0.088 0.218,0.106 0.245,0.118C0.272,0.131 0.303,0.137 0.338,0.137C0.371,0.137 0.4,0.129 0.427,0.113C0.454,0.098 0.475,0.075 0.491,0.044C0.507,0.014 0.515,-0.022 0.515,-0.064L0.515,-0.113C0.494,-0.076 0.467,-0.048 0.433,-0.027C0.399,-0.006 0.361,0.004 0.318,0.004C0.269,0.004 0.225,-0.008 0.186,-0.032C0.147,-0.055 0.116,-0.088 0.095,-0.13C0.073,-0.172 0.062,-0.22 0.062,-0.273C0.062,-0.327 0.074,-0.375 0.097,-0.417C0.12,-0.459 0.153,-0.492 0.195,-0.516C0.237,-0.539 0.285,-0.551 0.338,-0.551ZM0.338,-0.086C0.372,-0.086 0.403,-0.094 0.43,-0.11C0.457,-0.126 0.477,-0.148 0.493,-0.177C0.507,-0.205 0.515,-0.237 0.515,-0.273C0.515,-0.309 0.507,-0.341 0.493,-0.37C0.477,-0.399 0.457,-0.421 0.43,-0.437C0.403,-0.453 0.372,-0.461 0.338,-0.461C0.304,-0.461 0.274,-0.453 0.247,-0.437C0.22,-0.421 0.198,-0.399 0.183,-0.37C0.168,-0.341 0.16,-0.309 0.16,-0.273C0.16,-0.237 0.168,-0.205 0.183,-0.177C0.198,-0.148 0.22,-0.126 0.247,-0.11C0.274,-0.094 0.304,-0.086 0.338,-0.086Z" style="fill:#fbfef9;fill-rule:nonzero;"/>
        </g>
        <g transform="matrix(128,0,0,128,1667.72,603)">
            <path d="M0.362,-0.552C0.408,-0.552 0.449,-0.542 0.486,-0.522C0.523,-0.502 0.551,-0.473 0.572,-0.435C0.593,-0.396 0.603,-0.35 0.603,-0.296L0.603,-0.05C0.603,-0.035 0.598,-0.023 0.589,-0.014C0.579,-0.004 0.567,0.001 0.552,0.001C0.537,0.001 0.525,-0.004 0.516,-0.014C0.506,-0.023 0.501,-0.035 0.501,-0.05L0.501,-0.296C0.501,-0.35 0.487,-0.391 0.458,-0.419C0.429,-0.446 0.39,-0.46 0.342,-0.46C0.314,-0.46 0.289,-0.454 0.266,-0.443C0.243,-0.432 0.225,-0.416 0.212,-0.397C0.199,-0.378 0.192,-0.356 0.192,-0.332L0.192,-0.05C0.192,-0.035 0.187,-0.023 0.178,-0.014C0.169,-0.004 0.156,0.001 0.141,0.001C0.126,0.001 0.114,-0.004 0.105,-0.014C0.095,-0.023 0.09,-0.035 0.09,-0.05L0.09,-0.496C0.09,-0.511 0.095,-0.524 0.105,-0.533C0.114,-0.542 0.126,-0.547 0.141,-0.547C0.156,-0.547 0.169,-0.542 0.178,-0.533C0.187,-0.524 0.192,-0.511 0.192,-0.496L0.192,-0.485C0.213,-0.506 0.239,-0.523 0.268,-0.535C0.297,-0.546 0.329,-0.552 0.362,-0.552Z" style="fill:#fbfef9;fill-rule:nonzero;"/>
        </g>
        <g transform="matrix(128,0,0,128,1755.02,603)">
            <path d="M0.581,-0.282C0.581,-0.269 0.577,-0.259 0.568,-0.251C0.559,-0.242 0.548,-0.238 0.535,-0.238L0.155,-0.238C0.162,-0.191 0.184,-0.154 0.219,-0.125C0.254,-0.096 0.296,-0.082 0.347,-0.082C0.367,-0.082 0.388,-0.086 0.409,-0.093C0.431,-0.1 0.449,-0.109 0.463,-0.12C0.472,-0.127 0.483,-0.131 0.496,-0.131C0.509,-0.131 0.519,-0.128 0.526,-0.121C0.538,-0.111 0.544,-0.1 0.544,-0.087C0.544,-0.075 0.539,-0.065 0.528,-0.057C0.505,-0.039 0.477,-0.024 0.444,-0.013C0.41,-0.002 0.378,0.004 0.347,0.004C0.292,0.004 0.243,-0.008 0.2,-0.032C0.157,-0.055 0.123,-0.088 0.099,-0.13C0.074,-0.172 0.062,-0.22 0.062,-0.273C0.062,-0.326 0.074,-0.374 0.097,-0.417C0.119,-0.459 0.152,-0.492 0.193,-0.516C0.234,-0.539 0.28,-0.551 0.332,-0.551C0.383,-0.551 0.428,-0.54 0.465,-0.517C0.502,-0.494 0.531,-0.463 0.551,-0.422C0.571,-0.381 0.581,-0.335 0.581,-0.282ZM0.332,-0.465C0.283,-0.465 0.244,-0.452 0.214,-0.425C0.183,-0.398 0.164,-0.363 0.156,-0.318L0.489,-0.318C0.483,-0.363 0.466,-0.398 0.439,-0.425C0.412,-0.452 0.376,-0.465 0.332,-0.465Z" style="fill:#fbfef9;fill-rule:nonzero;"/>
        </g>
        <g transform="matrix(128,0,0,128,1834.5,603)">
            <path d="M0.358,-0.553C0.393,-0.553 0.421,-0.548 0.441,-0.537C0.461,-0.526 0.471,-0.513 0.471,-0.497C0.471,-0.492 0.471,-0.489 0.47,-0.487C0.464,-0.466 0.451,-0.455 0.43,-0.455C0.427,-0.455 0.422,-0.456 0.415,-0.457C0.388,-0.462 0.367,-0.464 0.35,-0.464C0.302,-0.464 0.263,-0.453 0.234,-0.431C0.205,-0.409 0.19,-0.379 0.19,-0.342L0.19,-0.05C0.19,-0.034 0.186,-0.022 0.178,-0.013C0.169,-0.004 0.157,0 0.14,0C0.124,0 0.112,-0.004 0.103,-0.013C0.094,-0.021 0.09,-0.033 0.09,-0.05L0.09,-0.497C0.09,-0.513 0.094,-0.525 0.103,-0.534C0.112,-0.543 0.124,-0.547 0.14,-0.547C0.173,-0.547 0.19,-0.53 0.19,-0.497L0.19,-0.478C0.21,-0.501 0.235,-0.52 0.264,-0.533C0.293,-0.546 0.325,-0.553 0.358,-0.553Z" style="fill:#fbfef9;fill-rule:nonzero;"/>
        </g>
        <g transform="matrix(128,0,0,128,1896.71,603)">
            <path d="M0.289,0.004C0.244,0.004 0.201,-0.003 0.161,-0.017C0.121,-0.031 0.09,-0.049 0.067,-0.072C0.058,-0.081 0.054,-0.091 0.054,-0.103C0.054,-0.119 0.061,-0.132 0.074,-0.142C0.087,-0.151 0.098,-0.156 0.109,-0.156C0.122,-0.156 0.135,-0.15 0.147,-0.138C0.16,-0.124 0.179,-0.112 0.204,-0.102C0.229,-0.091 0.256,-0.086 0.285,-0.086C0.323,-0.086 0.353,-0.092 0.374,-0.105C0.395,-0.118 0.405,-0.135 0.405,-0.156C0.405,-0.177 0.395,-0.194 0.374,-0.207C0.353,-0.221 0.318,-0.233 0.269,-0.242C0.141,-0.267 0.077,-0.319 0.077,-0.4C0.077,-0.433 0.087,-0.46 0.106,-0.483C0.125,-0.506 0.151,-0.523 0.182,-0.534C0.213,-0.545 0.247,-0.551 0.282,-0.551C0.325,-0.551 0.364,-0.544 0.399,-0.53C0.433,-0.516 0.46,-0.497 0.48,-0.472C0.489,-0.461 0.493,-0.451 0.493,-0.44C0.493,-0.429 0.487,-0.418 0.476,-0.409C0.469,-0.404 0.459,-0.401 0.448,-0.401C0.431,-0.401 0.415,-0.407 0.401,-0.42C0.384,-0.435 0.367,-0.446 0.348,-0.453C0.329,-0.459 0.307,-0.462 0.28,-0.462C0.249,-0.462 0.224,-0.457 0.204,-0.447C0.185,-0.436 0.175,-0.422 0.175,-0.403C0.175,-0.39 0.178,-0.379 0.185,-0.37C0.192,-0.361 0.204,-0.352 0.223,-0.344C0.242,-0.337 0.269,-0.329 0.304,-0.322C0.377,-0.307 0.428,-0.287 0.459,-0.261C0.489,-0.235 0.504,-0.201 0.504,-0.16C0.504,-0.129 0.496,-0.102 0.479,-0.077C0.462,-0.051 0.438,-0.032 0.406,-0.018C0.373,-0.003 0.334,0.004 0.289,0.004Z" style="fill:#fbfef9;fill-rule:nonzero;"/>
        </g>
    </g>
</svg>
